<?xml version="1.0" encoding="UTF-8" standalone="no"?>
<svg
   id="Capa_1"
   enable-background="new 0 0 512 512"
   height="512"
   viewBox="0 0 512 512"
   width="512"
   version="1.1"
   sodipodi:docname="favicon.svg"
   inkscape:version="1.3.2 (091e20e, 2023-11-25, custom)"
   xmlns:inkscape="http://www.inkscape.org/namespaces/inkscape"
   xmlns:sodipodi="http://sodipodi.sourceforge.net/DTD/sodipodi-0.dtd"
   xmlns="http://www.w3.org/2000/svg"
   xmlns:svg="http://www.w3.org/2000/svg">
  <defs
     id="defs30">
    <filter
       style="color-interpolation-filters:sRGB;"
       inkscape:label="Color Shift"
       id="filter45"
       x="0"
       y="0"
       width="1"
       height="1">
      <feColorMatrix
         type="hueRotate"
         values="156"
         result="color1"
         id="feColorMatrix44" />
      <feColorMatrix
         type="saturate"
         values="1"
         result="color2"
         id="feColorMatrix45" />
    </filter>
  </defs>
  <sodipodi:namedview
     id="namedview30"
     pagecolor="#ffffff"
     bordercolor="#000000"
     borderopacity="0.25"
     inkscape:showpageshadow="2"
     inkscape:pageopacity="0.0"
     inkscape:pagecheckerboard="0"
     inkscape:deskcolor="#d1d1d1"
     inkscape:zoom="1.5878906"
     inkscape:cx="256"
     inkscape:cy="256"
     inkscape:window-width="1872"
     inkscape:window-height="1009"
     inkscape:window-x="1912"
     inkscape:window-y="-7"
     inkscape:window-maximized="1"
     inkscape:current-layer="Capa_1" />
  <g
     id="g30"
     style="filter:url(#filter45)">
    <path
       d="m338.833 435.999v-182.765-36.553-87.075h-165.666v87.075 36.553 182.765z"
       fill="#ffbd86"
       id="path1" />
    <path
       d="m315.833 129.606h23v306.394h-23z"
       fill="#f6a96c"
       id="path2" />
    <path
       d="m355.967 69.385v-12.185c8.837 0 16-7.163 16-16v-25.7c0-4.418-3.582-8-8-8h-215.934c-4.418 0-8 3.582-8 8v25.7c0 8.837 7.163 16 16 16v12.185z"
       fill="#ffbd86"
       id="path3" />
    <path
       d="m363.967 7.5h-23c4.418 0 8 3.582 8 8v25.7c0 8.836-7.163 16-16 16v12.185h23v-12.185c8.837 0 16-7.163 16-16v-25.7c0-4.418-3.582-8-8-8z"
       fill="#f6a96c"
       id="path4" />
    <g
       id="g7">
      <g
         fill="#f6a96c"
         id="g6">
        <path
           d="m305.7 426.667v-120.967c0-9.149-7.417-16.567-16.567-16.567s-16.567 7.417-16.567 16.567v120.967z"
           id="path5" />
        <path
           d="m239.433 426.667v-120.967c0-9.149-7.417-16.567-16.567-16.567-9.149 0-16.567 7.417-16.567 16.567v120.967z"
           id="path6" />
      </g>
    </g>
    <path
       d="m338.833 256c9.149 0 16.567-7.417 16.567-16.567s-7.417-16.567-16.567-16.567h-165.666c-9.149 0-16.567 7.417-16.567 16.567s7.417 16.567 16.567 16.567z"
       fill="#ffe5c2"
       id="path7" />
    <path
       d="m156.033 454.8c-8.837 0-16 7.163-16 16v25.7c0 4.418 3.582 8 8 8h215.933c4.418 0 8-3.582 8-8v-25.7c0-8.837-7.163-16-16-16l-99.966-12.204z"
       fill="#ffbd86"
       id="path8" />
    <path
       d="m371.967 57.2h-231.116c-27.255 0-50.056 21.6-50.511 48.85-.465 27.838 21.962 50.55 49.693 50.55 13.539 0 25.81-5.417 34.773-14.199 1.524-1.493 3.546-2.368 5.679-2.368h151.035c2.123 0 4.139.863 5.655 2.349 9.397 9.216 22.434 14.732 36.759 14.179 26.412-1.02 47.61-22.996 47.732-49.428.127-27.555-22.173-49.933-49.699-49.933z"
       fill="#ffe5c2"
       id="path9" />
    <g
       id="g11">
      <g
         id="g10">
        <path
           d="m206.3 197.233c-4.143 0-7.5-3.358-7.5-7.5v-16.567c0-4.142 3.357-7.5 7.5-7.5s7.5 3.358 7.5 7.5v16.567c0 4.143-3.358 7.5-7.5 7.5z"
           fill="#ffe5c2"
           id="path10" />
      </g>
    </g>
    <g
       id="g13">
      <g
         id="g12">
        <path
           d="m256 197.233c-4.143 0-7.5-3.358-7.5-7.5v-16.567c0-4.142 3.357-7.5 7.5-7.5 4.142 0 7.5 3.358 7.5 7.5v16.567c0 4.143-3.358 7.5-7.5 7.5z"
           fill="#ffe5c2"
           id="path11" />
      </g>
    </g>
    <g
       id="g15">
      <g
         id="g14">
        <path
           d="m305.7 197.233c-4.143 0-7.5-3.358-7.5-7.5v-16.567c0-4.142 3.357-7.5 7.5-7.5s7.5 3.358 7.5 7.5v16.567c0 4.143-3.357 7.5-7.5 7.5z"
           fill="#ffe5c2"
           id="path13" />
      </g>
    </g>
    <g
       id="g23">
      <g
         id="g22">
        <g
           id="g16">
          <path
             d="m40.634 263.5h-33.134c-4.143 0-7.5-3.358-7.5-7.5s3.357-7.5 7.5-7.5h33.134c4.142 0 7.5 3.358 7.5 7.5s-3.358 7.5-7.5 7.5z"
             fill="#fee45a"
             id="path15" />
        </g>
        <g
           id="g17">
          <path
             d="m38.58 379.468c-2.592 0-5.112-1.345-6.502-3.751-2.071-3.587-.842-8.174 2.745-10.245l28.694-16.567c3.585-2.072 8.173-.842 10.245 2.745 2.071 3.587.842 8.174-2.745 10.245l-28.694 16.567c-1.18.682-2.47 1.006-3.743 1.006z"
             fill="#fee45a"
             id="path16" />
        </g>
        <g
           id="g18">
          <path
             d="m473.42 379.468c-1.272 0-2.561-.324-3.743-1.006l-28.694-16.567c-3.587-2.071-4.816-6.658-2.745-10.245 2.07-3.588 6.655-4.817 10.245-2.745l28.694 16.567c3.587 2.071 4.816 6.658 2.745 10.245-1.389 2.406-3.91 3.751-6.502 3.751z"
             fill="#fee45a"
             id="path17" />
        </g>
        <g
           id="g19">
          <path
             d="m504.5 263.5h-33.134c-4.143 0-7.5-3.358-7.5-7.5s3.357-7.5 7.5-7.5h33.134c4.142 0 7.5 3.358 7.5 7.5s-3.358 7.5-7.5 7.5z"
             fill="#fee45a"
             id="path18" />
        </g>
        <g
           id="g20">
          <path
             d="m444.739 164.102c-2.592 0-5.112-1.345-6.502-3.751-2.071-3.587-.842-8.174 2.745-10.245l28.694-16.567c3.585-2.071 8.173-.842 10.245 2.745 2.071 3.587.842 8.174-2.745 10.245l-28.694 16.567c-1.18.681-2.47 1.006-3.743 1.006z"
             fill="#fee45a"
             id="path19" />
        </g>
        <g
           id="g21">
          <path
             d="m67.261 164.102c-1.272 0-2.561-.324-3.743-1.006l-28.694-16.567c-3.587-2.071-4.816-6.658-2.745-10.245 2.07-3.588 6.655-4.817 10.245-2.745l28.694 16.567c3.587 2.071 4.816 6.658 2.745 10.245-1.389 2.405-3.91 3.751-6.502 3.751z"
             fill="#fee45a"
             id="path20" />
        </g>
      </g>
    </g>
    <path
       d="m355.967 454.8-99.967-12.204-11.5 1.404 88.467 10.8c8.837 0 16 7.163 16 16v25.7c0 4.419-3.582 8-8 8h23c4.418 0 8-3.581 8-8v-25.7c0-8.837-7.164-16-16-16z"
       fill="#f6a96c"
       id="path23" />
    <path
       d="m355.4 454.8h-198.8v-17.133c0-8.836 7.163-16 16-16h166.8c8.837 0 16 7.164 16 16z"
       fill="#ffe5c2"
       id="path24" />
    <g
       fill="#fed2a4"
       id="g27">
      <path
         d="m339.4 421.667h-23c8.837 0 16 7.163 16 16v17.133h23v-17.133c0-8.837-7.163-16-16-16z"
         id="path25" />
      <path
         d="m338.833 222.867h-23c9.149 0 16.567 7.417 16.567 16.567s-7.417 16.567-16.567 16.567h23c9.149 0 16.567-7.417 16.567-16.567s-7.417-16.567-16.567-16.567z"
         id="path26" />
      <path
         d="m371.967 57.2h-23c27.448 0 49.7 22.251 49.7 49.7 0 23.487-16.297 43.155-38.197 48.347 3.692.875 7.537 1.353 11.497 1.353 27.448 0 49.7-22.251 49.7-49.7 0-27.448-22.252-49.7-49.7-49.7z"
         id="path27" />
    </g>
    <circle
       cx="140.033"
       cy="106.9"
       fill="#f6a96c"
       r="16.567"
       id="circle27" />
    <circle
       cx="371.967"
       cy="106.9"
       fill="#f6a96c"
       r="16.567"
       id="circle28" />
    <g
       id="g29">
      <g
         id="g28">
        <path
           d="m371.967 105.333h-231.934c-4.143 0-7.5-3.358-7.5-7.5s3.357-7.5 7.5-7.5h231.934c4.143 0 7.5 3.358 7.5 7.5s-3.358 7.5-7.5 7.5z"
           fill="#f6a96c"
           id="path28" />
      </g>
    </g>
  </g>
</svg>
